<svg width="192" height="59" viewBox="0 0 192 59" fill="none" xmlns="http://www.w3.org/2000/svg">
<g id="Store" filter="url(#filter0_bd_17_17)">
<path d="M4 25.5C4 11.4167 15.4167 0 29.5 0H162.5C176.583 0 188 11.4167 188 25.5C188 39.5833 176.583 51 162.5 51H29.5C15.4167 51 4 39.5833 4 25.5Z" fill="url(#paint0_linear_17_17)"/>
<path d="M4.125 25.5C4.125 11.4858 15.4858 0.125 29.5 0.125H162.5C176.514 0.125 187.875 11.4858 187.875 25.5C187.875 39.5142 176.514 50.875 162.5 50.875H29.5C15.4858 50.875 4.125 39.5142 4.125 25.5Z" stroke="black" stroke-width="0.25"/>
</g>
<defs>
<filter id="filter0_bd_17_17" x="0" y="-4" width="192" height="63" filterUnits="userSpaceOnUse" color-interpolation-filters="sRGB">
<feFlood flood-opacity="0" result="BackgroundImageFix"/>
<feGaussianBlur in="BackgroundImageFix" stdDeviation="2"/>
<feComposite in2="SourceAlpha" operator="in" result="effect1_backgroundBlur_17_17"/>
<feColorMatrix in="SourceAlpha" type="matrix" values="0 0 0 0 0 0 0 0 0 0 0 0 0 0 0 0 0 0 127 0" result="hardAlpha"/>
<feOffset dy="4"/>
<feGaussianBlur stdDeviation="2"/>
<feComposite in2="hardAlpha" operator="out"/>
<feColorMatrix type="matrix" values="0 0 0 0 0 0 0 0 0 0 0 0 0 0 0 0 0 0 0.25 0"/>
<feBlend mode="normal" in2="effect1_backgroundBlur_17_17" result="effect2_dropShadow_17_17"/>
<feBlend mode="normal" in="SourceGraphic" in2="effect2_dropShadow_17_17" result="shape"/>
</filter>
<linearGradient id="paint0_linear_17_17" x1="91.5" y1="-5.36298e-07" x2="90.5" y2="51" gradientUnits="userSpaceOnUse">
<stop stop-color="#FE7B31"/>
<stop offset="1" stop-color="#A30000"/>
</linearGradient>
</defs>
</svg>
